<svg xmlns="http://www.w3.org/2000/svg" viewBox="0 0 1176.86 269.7" style=""><defs><style>.cls-1{fill:none;stroke:#fff;stroke-linecap:round;stroke-linejoin:round;stroke-width:16.86px;}</style></defs><title>Recurso 2</title><g id="Capa_2" data-name="Capa 2"><g id="Capa_1-2" data-name="Capa 1"><path class="cls-1 QVRVPVHV_0" d="M8.43,261.27L99.6,16.86L186.18,252.07L158.6,252.07L126.42,170.86L73.55,170.86"></path><path class="cls-1 QVRVPVHV_1" d="M455.88,37.54L455.88,8.43L272,8.43L272,37.54L348.61,37.54L350.14,250.54L376.2,250.54L376.2,137.15"></path><path class="cls-1 QVRVPVHV_2" d="M566.21,75.85L566.21,8.43L537.09,8.43L537.09,250.54L678.07,250.54L678.07,190.78L652.02,189.25L652.02,221.43L575.4,221.43"></path><path class="cls-1 QVRVPVHV_3" d="M756.22,261.27L847.4,16.86L933.98,252.07L906.39,252.07L874.21,170.86L821.35,170.86"></path><path class="cls-1 QVRVPVHV_4" d="M1139.31,193.84S1134.72,223,1094.87,223c-42.9,0-50.56-29.12-50.56-29.12l-22.22,17.63s17.62,42.14,72.78,42.14c67.43,0,73.56-59.77,73.56-59.77V154l-150.17-44.44V68.19S1029,8.43,1094.87,8.43c59.77,0,73.56,47.5,73.56,47.5l-26,10.73s-9.2-30.65-49-30.65c-32.18-1.53-44.44,27.58-44.44,27.58"></path></g></g><style data-made-with="vivus-instant">.QVRVPVHV_0{stroke-dasharray:680 682;stroke-dashoffset:681;animation:QVRVPVHV_draw 3000ms linear 0ms forwards;}.QVRVPVHV_1{stroke-dasharray:672 674;stroke-dashoffset:673;animation:QVRVPVHV_draw 3000ms linear 0ms forwards;}.QVRVPVHV_2{stroke-dasharray:675 677;stroke-dashoffset:676;animation:QVRVPVHV_draw 3000ms linear 0ms forwards;}.QVRVPVHV_3{stroke-dasharray:680 682;stroke-dashoffset:681;animation:QVRVPVHV_draw 3000ms linear 0ms forwards;}.QVRVPVHV_4{stroke-dasharray:925 927;stroke-dashoffset:926;animation:QVRVPVHV_draw 3000ms linear 0ms forwards;}@keyframes QVRVPVHV_draw{100%{stroke-dashoffset:0;}}@keyframes QVRVPVHV_fade{0%{stroke-opacity:1;}94.44444444444444%{stroke-opacity:1;}100%{stroke-opacity:0;}}</style></svg>