<?xml version="1.0" encoding="utf-8"?>
<!-- Generator: Adobe Illustrator 24.0.0, SVG Export Plug-In . SVG Version: 6.00 Build 0)  -->
<svg version="1.1" id="1" xmlns="http://www.w3.org/2000/svg" xmlns:xlink="http://www.w3.org/1999/xlink" x="0px" y="0px"
	 viewBox="0 0 131.6 151.9" style="enable-background:new 0 0 131.6 151.9;" xml:space="preserve">
<style type="text/css">
	.st0{fill:none;stroke:#D00040;stroke-width:4;stroke-linecap:round;stroke-miterlimit:10;}
</style>
<title>Atlas</title>
<polyline class="st0" points="83.3,45.8 118.2,45.8 88.7,96.5 "/>
<polyline class="st0" points="88.9,55.5 101.1,55.5 77.3,96.5 "/>
<polyline class="st0" points="100.6,76.1 118.1,106.4 60.1,106.3 "/>
<polyline class="st0" points="94.9,85.8 101.1,96.5 54.4,96.4 "/>
<polyline class="st0" points="83.6,106.3 66.1,136.6 36.8,85.4 "/>
<polyline class="st0" points="72.3,106.3 66.2,116.9 42.6,75.8 "/>
<polyline class="st0" points="48.6,106.2 13.3,106.2 42.7,55.5 "/>
<polyline class="st0" points="43.1,96.5 30.3,96.5 54.1,55.5 "/>
<polyline class="st0" points="30.9,75.8 13.5,45.6 71.9,45.7 "/>
<polyline class="st0" points="36.6,66.1 30.5,55.5 77.5,55.6 "/>
<polyline class="st0" points="48.3,45.7 65.8,15.4 95,66.2 "/>
<polyline class="st0" points="59.6,45.7 65.7,35 89.3,76.1 "/>
</svg>
